<svg version="1" xmlns="http://www.w3.org/2000/svg" width="682.667" height="682.667" viewBox="0 0 512.000000 512.000000"><path d="M180.3 49.8c.1 49.7-17.5 99.6-44.6 126.5l-3.9 3.8 4.7 4.1c34.1 30 62.2 76.8 70.4 117.3 1.1 5.5 2.3 13.1 2.7 17 .3 3.8.8 7.7.9 8.5.2.8.4 1.9.4 2.3.1.5 4-2.2 8.9-5.9 4.8-3.7 9.3-7.2 10.1-7.8 1.1-.8 1.2.2.6 6.4-2.7 28-17.4 51.4-44.1 70.5-27.9 20-64.8 33.9-106.7 40.1-6.2.9-6.7 2-1.3 2.8 2.3.4 5.4.9 6.7 1.1 1.3.3 4 .7 5.9.9 1.9.3 4.4.7 5.5 1 1.1.2 4.7.7 8 1.1 3.3.4 7.1.9 8.5 1.1 15.2 1.9 63.9 2.6 76.5 1.1 3.3-.4 8.5-1 11.5-1.3 8-.8 20.4-3.2 29-5.5 25.9-7.1 43-16.1 56.8-29.9l6.9-6.8 5.3 6.9c2.9 3.8 5.5 6.9 5.9 6.9.7 0 4.1-7.4 4.1-8.9 0-.4.9-3 1.9-5.7 2.7-7 4.8-14.6 7-25.4 1.9-9.4 2.3-12.2 4-27 .9-7.4.7-42.6-.3-48.5-.3-1.7-.7-4.4-1-6-.3-1.7-.8-4.8-1.1-7-1.7-11.4-7.2-29.1-13.8-44.7-2.3-5.4-4.4-9.8-4.7-9.8-.3 0-2.2 2.8-4.3 6.1l-3.8 6.2-3.9-7.7c-9.8-19.2-22.3-43.2-23-44.1-.4-.6-1-2-1.4-3.1-.6-2.1-.3-2 10.1 1.1 13.7 4.2 19.1 6.2 22.2 8.2 2.3 1.5 2.6 1.5 4.2-.6 2.2-2.7 5.7-11.9 7.2-18.9.6-2.8 1.4-5.2 1.7-5.2 1.1 0 7 9.7 9.1 15 1.3 3 2.3 5.6 2.4 5.8.1.1 3.3-.5 7.1-1.4 3.8-.9 8-1.8 9.4-2 1.4-.2 4.5-.9 7-1.4 4.7-1 13.8-2.6 20.5-3.5 2.2-.4 5-.8 6.3-1 1.3-.2 5.3-.7 9-1 3.7-.4 9.9-1 13.7-1.5 7.8-.8 44-.5 49.5.4 1.9.3 5.4.8 7.7 1.1l4.1.5-1.9-7.2c-2.1-8.5-10.1-25.2-15.5-32.3-11.5-15.2-28.5-28.2-46.4-35.3-13.3-5.3-32.5-9.1-47.3-9.3-4.3-.1-7.7-.4-7.7-.8 0-1.2 19.7-11.3 21.3-10.9.6.2 11.9-3.4 11.6-3.6-1.2-1-25.9-10.3-37.6-14.2-12.9-4.3-39.9-11.6-47.5-12.9-21.3-3.6-22.4-3.7-37.1-4-8.4-.2-14 .1-14.3.7-.4.6-.8 2.7-1.1 4.7-.9 7.5-3.4 20.8-4.7 25.1-1.3 4.4-1.3 4.4-2.6 2-6.1-12-19.9-26.8-33-35.7-12.7-8.5-11.7-8.6-11.7 1.5z"/></svg>